<svg id="Layer_1" data-name="Layer 1" xmlns="http://www.w3.org/2000/svg" viewBox="0 0 786.16 103.69"><defs><style>.cls-1{fill:#fff;}</style></defs><title>logo_orizzontale_bianco</title><path class="cls-1" d="M335.12,300.06l.06-40.93c25.66,0,35.09-1.29,39.55,30.18h2.71v-35l-69.88,0v4.82h12.1v90.08H306.33V354h72V317.15h-3.6c-3.59,27.83-10.64,32.07-30.44,32.07h-9.17V305.46h5.32c8.87.21,13.93,5.39,15.75,20.67h3.26l0-45.26c-.07.09-3.21,0-3.21,0,0,.23-.63,19.46-16.16,19.19Z" transform="translate(-29.95 -251.17)"/><path class="cls-1" d="M306.58,301.85H267.15v4.47h13.5v32.4c-2.28,8.22-14.4,11.66-18,11.66-25.18,0-23.39-36.84-23.39-46.7,0-9-.9-46.73,23.39-46.73,17.1,0,26.1,17,29.71,32.35h2.73c0-6.31.11-36.3,0-36.23.06-.24-11.73,8.47-11.77,8.32.27,0-5.38-8.06-20.71-8.06-29.72,0-40.61,29.66-40.53,50.35.14,18.92,8.87,51.18,40.53,51.18A24.16,24.16,0,0,0,283.36,344c0-.13,12.55,9.87,12.59,9.91V306.33h10.63Z" transform="translate(-29.95 -251.17)"/><path class="cls-1" d="M767.21,317.15c-3.59,27.83-10.65,32-30.44,32h-1.2V259.09h12.58v-4.85H706.77v4.85h12.59v90.06h-10l-36.8-97.61h-5.4c.12-.05-30.56,88.56-30.63,88.82.06-.26-2.32,7.61-7.37,8.59-4.65.22-4.3-2.21-4.3-3.06V328.82c0-4.47-.35-14.66-5-19.33-5.21-5.25-14.12-5.64-13.92-5.84,0,0,22.62-4.66,22.62-26.16,0-15.07-10.49-22.57-28-23.23H550.85v4.85h12.71v90.06H550.85V354h40.78v-4.78H578.91v-43.3h17c29.42,2.43-5.06,48.14,33.51,48.08h24.31v-4.8c-1.35,0-10.25.26-10.81-5.94-.38-4.48,5.87-20.6,5.87-20.6h33.09c0-.06,10.28,26.56,10.38,26.56H680.67V354h90.16V317.15ZM595.15,300.81H579V259.07h20.68c12.14,1.84,12.64,15.86,12.64,20.32C612.3,290.19,607.78,300.81,595.15,300.81ZM651,318l14.38-43.07L680.67,318Z" transform="translate(-29.95 -251.17)"/><path class="cls-1" d="M501.82,259.07c25.65,0,35.13-1.23,39.61,30.24h2.71v-35H442.25v4.79h2.66c3.59,0,12.13.27,12.61,7.78h0v57.46l-47.65-70H383.92v4.79h4.32c5.11,0,12.28.22,12.61,7.78v73.62c0,7.18-10.75,9.91-15.25,9.91h0V354h35.11v-3.57c-4.49,0-15.32-2.73-15.32-9.91l.12-64.82c18.87,27,54.48,78.36,54.82,78.3H462v-87.1c.5-7.51,9-7.78,12.63-7.78h11.7v90.14H473V354h72V317.15h-3.6C537.84,345,530.79,349.22,511,349.22h-9.17V305.46h5.31c8.89.21,13.94,5.39,15.75,20.67h3.28l0-45.26c-.06.09-3.2,0-3.2,0,0,.23-.64,19.46-16.16,19.19h-4.93Z" transform="translate(-29.95 -251.17)"/><polygon class="cls-1" points="786.16 7.92 786.16 3.06 745.53 3.06 745.53 7.92 758.29 7.92 758.33 97.94 745.53 97.94 745.53 102.78 786.16 102.78 786.16 97.94 773.4 97.94 773.4 7.92 786.16 7.92"/><polygon class="cls-1" points="33.78 65.28 22.38 62.31 22.38 65.64 33.78 68.61 33.78 65.28"/><polygon class="cls-1" points="18.62 62.31 7.21 65.28 7.21 68.61 18.62 65.64 18.62 62.31"/><polygon class="cls-1" points="33.78 72.81 22.38 69.84 22.38 73.17 33.78 76.14 33.78 72.81"/><polygon class="cls-1" points="18.62 69.84 7.21 72.81 7.21 76.14 18.62 73.17 18.62 69.84"/><polygon class="cls-1" points="33.78 80.34 22.38 77.37 22.38 80.7 33.78 83.67 33.78 80.34"/><polygon class="cls-1" points="18.62 77.37 7.21 80.34 7.21 83.67 18.62 80.7 18.62 77.37"/><path class="cls-1" d="M172.3,345.29l4.13-1.56,0,0c5.18-2.15,5.87-3.4,5.63-6.85V321.07c4.2,10.92,7.93,18.74,16,18.74a15,15,0,0,0,3.32-.4l2.69-.61-1.85-2a19.42,19.42,0,0,1-2.74-4c-.31-.54-.62-1.1-1-1.71-1.79-2.92-6.1-3.86-9.54-2.22a135,135,0,0,1-5.19-12.52l-.41-.95a87.69,87.69,0,0,0-5-10.28,45.06,45.06,0,0,0-4.27-6,25.54,25.54,0,0,0-15.77-8.72,92.12,92.12,0,0,0-11.69-1.1l-2.64-.14c-1.85-.1-5.81-.42-9.64-.72l-7-.55a7.3,7.3,0,0,0,.27-1.93,9.52,9.52,0,0,0-.27-2.37h26.14c6.63,0,11.42-3,14.25-8.77,6.66,0,11.46-3,14.27-9H183c6.82,0,11.7-3.12,14.5-9.27l1-2.28h-87.4c-5.67,0-10.51,3.71-12.31,9.45l-.23.81a18.56,18.56,0,0,0-7.85-10.28c-4.82-2.87-10.29-3.84-14.64-2.58a15.15,15.15,0,0,0-7.45,4.85,28.22,28.22,0,0,0-3.06,4.94h0a5.56,5.56,0,0,0-1.11,1.19l-1,2,0,.1a24.79,24.79,0,0,1-4,6.25,4,4,0,0,0-1,3.38,4.5,4.5,0,0,0,1.27,2.3l-.11.17a3.78,3.78,0,0,0-.51,1.9,4,4,0,0,0,4.27,3.88A8.47,8.47,0,0,0,68,280.79a11.84,11.84,0,0,1,2.92-1.62,1.41,1.41,0,0,1,.75.2,1.57,1.57,0,0,1,.81,1.32c0,1.61-1.74,3-4.2,3.22l-3.08.33c-3.52.17-4.12,1.95-4.19,2.22a3,3,0,0,0,1.28,3l.27.25c.35.28.6.52.6.52l-4,6.38c-2.69-2.56-5.87-4.12-8.68-4.21A5.93,5.93,0,0,0,46.13,294a5.23,5.23,0,0,0-.9,1.13,7.74,7.74,0,0,0-6.57,3.3c-1.28,2-.76,5.42,1,8L30,308.9v45h174.7v-8.66Zm23.45-12.5c.35.57.65,1.1.94,1.61.41.73.81,1.44,1.32,2.19-3.09,0-5.35-1.67-7.45-4.89C192.46,330.91,194.88,331.37,195.75,332.79Zm-38-39.21a22.4,22.4,0,0,1,13.85,7.63,38.84,38.84,0,0,1,2.45,3.23c-10.25-1.3-13.55-2.59-19.18-11.27C155.78,293.27,156.74,293.41,157.76,293.58Zm-4.34-13.21H135a16,16,0,0,0,4.27-5.55H164C161.69,278.59,158.28,280.37,153.41,280.37Zm14.17-8.77H149.21a16.15,16.15,0,0,0,4.37-5.74h24.71C176,269.76,172.53,271.6,167.58,271.6Zm1.08-14.07h24.62c-2.31,3.47-5.64,5.1-10.31,5.1H164.61A15.77,15.77,0,0,0,168.67,257.53Zm-97.49,1a11.62,11.62,0,0,1,2.65-2.31A12.13,12.13,0,0,1,77,254.8a13.15,13.15,0,0,1,6.52,0l-7,4.31a23.17,23.17,0,0,0-2.38-.13,18.15,18.15,0,0,0-3.52.33C70.8,259,71,258.78,71.18,258.54ZM63.65,287a.75.75,0,0,1,1-.61H65l2.45.08,1.47-.14c3.47-.43,6.41-2.64,6.41-5.6a5.85,5.85,0,0,0-1.42-3.44,3.93,3.93,0,0,0-3-1.35c-1.38,0-2.93,1-4.68,2.15a6.67,6.67,0,0,1-2.94,1.44,1,1,0,0,1-1.07-.79.58.58,0,0,1,0-.23l2-2.65-1.6-.9c-.42-.23-1-.78-1.11-1.18q0-.27.32-.7a29.69,29.69,0,0,0,2.81-3.82,1.4,1.4,0,0,1,1.19-.44,1.55,1.55,0,0,1,1.47,1.51c0,.55.6,1,1.35,1s1.08-.53,1.55-1c0,0,1.78-1.63.84-2.4s-5.1.8-4.27-2.68l.45-.85c.47-.63,2.59-2.23,6.94-2.23a20.38,20.38,0,0,1,2.55.17l.56.07,9.15-5.65a2.32,2.32,0,0,1,.22.58h0v.05c.48,2.81-1.28,6.16-4.1,7.78l-1,.56.72,4.11a5,5,0,0,0-4,4.66,15.84,15.84,0,0,0,.4,2.8,29.8,29.8,0,0,1,.61,4.25h0c.06,2.62-3.13,6.51-9.62,7.05A11.68,11.68,0,0,1,64,287.8.81.81,0,0,1,63.65,287Zm-22.3,13.16a4.52,4.52,0,0,1,4.58-1.77l1.37.24.43-1.32a2.35,2.35,0,0,1,.6-1,2.75,2.75,0,0,1,2.05-.63c2.23.07,5,1.62,7.27,4a28.58,28.58,0,0,1,3.85,5.83l2.07-2.91a26.3,26.3,0,0,0-2.2-3.46l4.92-7.79a16.11,16.11,0,0,0,2.05.28c.26,0,.9,0,1.31,0,6.25-.26,12.77-3.71,12.87-10.07v-.15a32.49,32.49,0,0,0-.67-4.74,15.59,15.59,0,0,1-.34-2.18c0-.82,1-1.69,2.61-1.69h1.92l-1-5.48a11.32,11.32,0,0,0,4.8-9.77,16.71,16.71,0,0,1,6.41,11.89,19.11,19.11,0,0,1-.59,5.3l-.23.81h0A72.34,72.34,0,0,1,93,283.74l-.5,1.29,1.21.68c2.49,1.41,4,2.45,4,5.77,0,3.78-3.38,6.68-6.66,7.29l-3.88.73,3.28,2.2a4.37,4.37,0,0,1,2,3.62,4.49,4.49,0,0,1-4.57,4.38H86.66l-.35,1.14c-1.41,4.6-2.94,6.8-8,7.21a26.11,26.11,0,0,0,.41-4.69c0-.41,0-1.63-.06-2l-.19-3.67-2.57,2.62a9.45,9.45,0,0,1-5,2.28V308.9l-20.49-5.33L43,305.5C41.21,303.77,40.89,300.87,41.35,300.17Zm-6.49,45.12,15.58-4.06L66,345.29Zm32.85-2.89-17.27-4.5-17.27,4.5v-31l17.27-4.49,17.27,4.49Zm7.9-6.09c-1.51,2.17-1.68,5.19-.53,9H70.94V315.84a15.51,15.51,0,0,0,4.55-1.36,28.84,28.84,0,0,1-.51,4l-.17,1-.32,1.88h1.91a15.31,15.31,0,0,0,7.64-1.6v12.58a.75.75,0,0,1-.74.77h-.54C79.63,333.1,77,334.26,75.62,336.3Zm39.31.8c-1.28,1.47-2.53,4-1.71,8.18H89.87l.16-.11c2.75-.18,4.7-.7,6-2a6.62,6.62,0,0,0,1.47-4.94c0-.13.26-.72,1.49-1.28l1.7-.77-1-1.57c-2-3-1.08-9.61-.33-13.06,7.69.06,12.59-1.54,17.78-3.21,1.34-.43,2.72-.88,4.18-1.3h0s1.6-.51,3.73-1l7.3,12.06.06.09c.86,1.23.75,2-.52,3.49l-3.7,4-6-1.12h0A8.09,8.09,0,0,0,114.93,337.11Zm1.59,8.18c-.65-2.6-.36-4.69.84-6.06a4.88,4.88,0,0,1,4.23-1.56l6.89,1.28.15,0h.85l4.8-5.19,0,0c1.4-1.63,3-4.17.76-7.41l-6.66-11A24.43,24.43,0,0,1,132,315a14.58,14.58,0,0,1,6.94,2.05c.47,1,1.14,2.38,1.89,3.89,1.37,2.78,3.07,6.23,3.55,7.64a3.44,3.44,0,0,1-1.06,3.66l-12.31,13Zm42.89,0h-24l10.2-10.79a6.58,6.58,0,0,0,1.78-6.93c-.51-1.51-2-4.52-3.45-7.51,4,2,10,3.73,22.88,4.77,1.64.14,2.06.75,2.36,2.16l.56,5.53L163.09,334a6,6,0,0,0-4.52,3.79A9,9,0,0,0,159.41,345.29Zm3.73-.11c-1.63-2.21-2.21-4.53-1.56-6.21a2.82,2.82,0,0,1,2.15-1.8l9.49-2.12-.86-8.46,0-.17c-.4-1.9-1.38-4.47-5.27-4.79-17.39-1.41-21.39-4-25.62-6.74h0l0-.1-.07,0-.15-.1a17.87,17.87,0,0,0-9.26-2.89c-4.88,0-11.07,1.94-11.55,2.1-1.49.44-2.89.89-4.24,1.32-5.43,1.75-10.12,3.26-18,3l-1.28,0-.33,1.23c-.28,1.07-2.51,9.86-.31,15.37a4.23,4.23,0,0,0-1.93,3.39c.07,1.79-.29,2.39-.58,2.68-1,1-3.9,1.13-6.63,1.13h-.82l-.48.67c-1.63,2.25-5.19,2.76-7.42,2.15-1-3-1-5.32-.07-6.71,1.14-1.64,3.51-1.82,4.48-1.82h.54a4,4,0,0,0,4-4V316.69a17.07,17.07,0,0,0,1.8-3.84,7.68,7.68,0,0,0,6.65-7.52,7.48,7.48,0,0,0-1.32-4.24,10.76,10.76,0,0,0,6.6-9.59,8.46,8.46,0,0,0-4.48-7.88,72.16,72.16,0,0,0,2.35-8l3-10.88a9.75,9.75,0,0,1,9.23-7.17h53.82c-2.31,3.46-5.63,5.1-10.3,5.1H123.88v0h-1.69a7.89,7.89,0,0,0-.76,1.59,11.06,11.06,0,0,1-.73,1.61h29.25c-2.32,3.91-5.76,5.74-10.71,5.74H118.12a7.89,7.89,0,0,0-.76,1.59,11.37,11.37,0,0,1-.73,1.6h19c-2.31,3.77-5.73,5.55-10.59,5.55H113.51a8,8,0,0,0-.76,1.59,11.36,11.36,0,0,1-.73,1.6h12s.52.47.52,2.37a4.5,4.5,0,0,1-4.56,4.42c-1.14,0-2-.35-4.3-1.33l-.18-.08-2.45,2.19,1.42.63c2.39,1,3.72,1.58,5.5,1.58a7.58,7.58,0,0,0,5.52-2.38c2,.14,5.34.4,8.54.65,3.85.31,7.82.63,9.72.73l2.66.14c1.55.08,3,.15,4.39.25,7.35,12,11,13.47,25.41,15.18,1,1.71,1.83,3.52,2.65,5.34V337c.08,1.16.08,1.5-.11,1.75a11.41,11.41,0,0,1-3.51,1.93l-12.06,4.56Z" transform="translate(-29.95 -251.17)"/></svg>